<svg xmlns="http://www.w3.org/2000/svg" viewBox="0 0 100 90">
  <!-- Base -->
  <path d="M10,78 Q50,63 90,78 L86,88 L14,88 Z" fill="#D4AC2E"/>

  <!-- Left outer wing -->
  <path d="M10,78 Q6,58 3,32 Q12,48 20,54 Q22,42 27,30 Q30,44 28,56 Q34,50 40,46" fill="#D4AC2E"/>

  <!-- Right outer wing -->
  <path d="M90,78 Q94,58 97,32 Q88,48 80,54 Q78,42 73,30 Q70,44 72,56 Q66,50 60,46" fill="#D4AC2E"/>

  <!-- Center tall spike -->
  <path d="M50,2 L46,28 Q48,24 50,20 Q52,24 54,28 Z" fill="#D4AC2E"/>

  <!-- Center body / fleur -->
  <path d="M40,46 Q37,56 39,66 Q44,61 50,65 Q56,61 61,66 Q63,56 60,46
            Q56,53 52,52 Q51,46 50,42 Q49,46 48,52 Q44,53 40,46 Z" fill="#D4AC2E"/>

  <!-- Left curl -->
  <path d="M40,46 Q28,46 27,56 Q31,63 39,66 Q37,58 40,53 Z" fill="#D4AC2E"/>

  <!-- Right curl -->
  <path d="M60,46 Q72,46 73,56 Q69,63 61,66 Q63,58 60,53 Z" fill="#D4AC2E"/>

  <!-- Center oval cutout -->
  <ellipse cx="50" cy="30" rx="4.5" ry="9" fill="white"/>

  <!-- Left small orbs -->
  <circle cx="39" cy="44" r="3.2" fill="#D4AC2E" stroke="white" stroke-width="0.5"/>
  <circle cx="30" cy="52" r="2.8" fill="#D4AC2E" stroke="white" stroke-width="0.5"/>

  <!-- Right small orbs -->
  <circle cx="61" cy="44" r="3.2" fill="#D4AC2E" stroke="white" stroke-width="0.5"/>
  <circle cx="70" cy="52" r="2.8" fill="#D4AC2E" stroke="white" stroke-width="0.5"/>
</svg>
